PathFileType	4	(X/Y/Z)	tour_average_tracked.trc
DataRate	CameraRate	NumFrames	NumMarkers	Units	OrigDataRate	OrigDataStartFrame	OrigNumFrames
360.00	360.00	11	34	m	360.00	409	654
Frame#	Time	WaistLeft			WaistRight			WaistLBack			WaistRBack			BackTop			BackLeft			BackRight			HeadTop			HeadFront			HeadSide			LShoulderTop			LShoulderBack			LElbowOut			LUArmHigh			LWristTop			RShoulderTop			RShoulderBack			RElbowOut			RUArmHigh			RWristTop			LKneeOut			LToeIn			LToeOut			LAnkleOut			RKneeOut			RToeIn			RToeOut			RAnkleOut			Marker_2:2:1			Marker_2:2:2			Marker_2:2:3			Marker_3:3:1			Marker_3:3:2			Marker_3:3:3		
		X1	Y1	Z1	X2	Y2	Z2	X3	Y3	Z3	X4	Y4	Z4	X5	Y5	Z5	X6	Y6	Z6	X7	Y7	Z7	X8	Y8	Z8	X9	Y9	Z9	X10	Y10	Z10	X11	Y11	Z11	X12	Y12	Z12	X13	Y13	Z13	X14	Y14	Z14	X15	Y15	Z15	X16	Y16	Z16	X17	Y17	Z17	X18	Y18	Z18	X19	Y19	Z19	X20	Y20	Z20	X21	Y21	Z21	X22	Y22	Z22	X23	Y23	Z23	X24	Y24	Z24	X25	Y25	Z25	X26	Y26	Z26	X27	Y27	Z27	X28	Y28	Z28	X29	Y29	Z29	X30	Y30	Z30	X31	Y31	Z31	X32	Y32	Z32	X33	Y33	Z33	X34	Y34	Z34

409	1.133333333	1.014106	0.937139	0.067497	1.185313	1.024664	-0.208432	1.169036	1.001552	0.084107	1.264574	1.028737	-0.053408	0.840246	1.410973	-0.010448	0.834814	1.229159	0.034417	1.001614	1.306520	0.019998	0.681599	1.635325	-0.114118	0.597676	1.519164	-0.174560	0.684181	1.539951	-0.020445	0.713060	1.381321	-0.147007	0.718425	1.303675	-0.018204	0.894941	1.383740	-0.383925	0.777786	1.274756	-0.270274	1.061000	1.609846	-0.424704	NaN	NaN	NaN	0.971943	1.449038	-0.012474	1.271476	1.319568	-0.283276	1.158068	1.363504	-0.141133	1.184822	1.578209	-0.366812	0.951569	0.473349	0.179046	0.977758	0.049077	0.209706	1.009273	0.048821	0.311700	1.144903	0.110174	0.260528	1.081528	0.530310	-0.327032	0.982049	0.042342	-0.301013	0.985703	0.035042	-0.417731	1.133847	0.114708	-0.380605	1.325091	1.831133	0.541921	1.267021	1.792351	0.602192	1.311147	1.766191	0.610817	1.216059	1.753731	-0.127255	1.217940	1.707040	-0.193037	1.190816	1.724000	-0.242251
410	1.136111111	1.016294	0.937096	0.071061	1.182787	1.024457	-0.208258	1.171971	1.001210	0.084738	1.264858	1.028618	-0.054544	0.840825	1.411402	-0.009648	0.835711	1.230089	0.037148	1.002325	1.307283	0.020586	0.682461	1.635311	-0.114235	0.598244	1.519077	-0.174155	0.684821	1.540310	-0.020173	0.713200	1.380660	-0.145090	0.718989	1.304073	-0.015649	0.894001	1.380510	-0.382997	0.776932	1.272687	-0.267722	1.060773	1.605524	-0.426608	NaN	NaN	NaN	0.972389	1.449443	-0.013017	1.270586	1.315548	-0.283118	1.157612	1.361926	-0.141391	1.184818	1.573500	-0.368941	0.951837	0.473893	0.180319	0.977454	0.048898	0.209895	1.009122	0.048785	0.311564	1.144635	0.110280	0.260290	1.079020	0.530296	-0.326890	0.982057	0.042292	-0.300999	0.985717	0.035103	-0.417732	1.133433	0.114934	-0.380507	1.329959	1.834174	0.536780	1.271991	1.796322	0.597484	1.315664	1.769905	0.606431	1.218080	1.750962	-0.131209	1.219299	1.703569	-0.196505	1.192124	1.720317	-0.245852
411	1.138888889	1.018926	0.936988	0.074478	1.180225	1.024268	-0.207961	1.174945	1.000859	0.085254	1.264616	1.028136	-0.056136	0.841395	1.411857	-0.008838	0.836675	1.231231	0.040150	1.003189	1.308183	0.021106	0.683415	1.635271	-0.114413	0.598867	1.518997	-0.173758	0.685470	1.540759	-0.019905	0.713074	1.379985	-0.143177	0.719623	1.304558	-0.012870	0.892779	1.377034	-0.381895	0.776079	1.270649	-0.264982	1.060510	1.600851	-0.428554	NaN	NaN	NaN	0.972970	1.449919	-0.013686	1.269448	1.311071	-0.282834	1.157081	1.360209	-0.141635	1.184711	1.568376	-0.371407	0.952314	0.474498	0.181760	0.977194	0.048794	0.209859	1.009010	0.048736	0.311472	1.144436	0.110387	0.260030	1.076484	0.530117	-0.326524	0.981995	0.042249	-0.300998	0.985721	0.035139	-0.417717	1.132995	0.115147	-0.380399	1.334946	1.837416	0.531271	1.276981	1.800719	0.592512	1.320328	1.774419	0.602022	1.220230	1.747977	-0.135596	1.220858	1.699932	-0.200438	1.193652	1.716473	-0.249811
412	1.141666667	1.021730	0.936870	0.077910	1.177592	1.024035	-0.207705	1.178014	1.000507	0.085743	1.264753	1.027982	-0.057429	0.842041	1.412488	-0.007979	0.837947	1.232425	0.043212	1.004074	1.309152	0.021502	0.684494	1.635258	-0.114692	0.599518	1.518920	-0.173380	0.686271	1.541263	-0.019602	0.713092	1.379222	-0.140942	0.720384	1.305138	-0.009948	0.891636	1.373169	-0.380827	0.775190	1.268321	-0.262041	1.060192	1.595684	-0.430749	NaN	NaN	NaN	0.973677	1.450523	-0.014498	1.268169	1.306329	-0.282467	1.156539	1.358417	-0.141937	1.184611	1.562937	-0.374051	0.952684	0.474985	0.183209	0.977158	0.048673	0.209651	1.008923	0.048684	0.311404	1.144261	0.110455	0.259785	1.073801	0.530024	-0.326252	0.981989	0.042192	-0.300945	0.985744	0.035201	-0.417694	1.132576	0.115351	-0.380277	1.340551	1.840950	0.524915	1.282334	1.805504	0.586940	1.325607	1.778992	0.596501	1.222509	1.744778	-0.140372	1.222375	1.695953	-0.204674	1.195173	1.712201	-0.254082
413	1.144444444	1.024453	0.936779	0.081261	1.174826	1.023763	-0.207422	1.181075	1.000162	0.086131	1.264720	1.027769	-0.058736	0.842729	1.413172	-0.007171	0.839288	1.233660	0.046329	1.005139	1.310240	0.021975	0.685537	1.635296	-0.115076	0.600180	1.518867	-0.173003	0.686995	1.541920	-0.019380	0.713003	1.378457	-0.138681	0.721253	1.305689	-0.006764	0.890296	1.369123	-0.379638	0.773583	1.266036	-0.259074	1.059686	1.590128	-0.433080	NaN	NaN	NaN	0.974319	1.451244	-0.015385	1.266822	1.301327	-0.282006	1.155888	1.356484	-0.142212	1.184358	1.556990	-0.376742	0.953242	0.475522	0.184831	0.976708	0.048676	0.209732	1.008860	0.048619	0.311331	1.144117	0.110541	0.259539	1.071082	0.529750	-0.325947	0.981926	0.042143	-0.300922	0.985716	0.035264	-0.417660	1.132117	0.115565	-0.380143	1.346756	1.844728	0.517754	1.288032	1.810539	0.580599	1.331258	1.783736	0.590417	1.224834	1.741305	-0.145585	1.224006	1.691703	-0.209230	1.196663	1.707686	-0.258793
414	1.147222222	1.027289	0.936640	0.084616	1.171952	1.023393	-0.206990	1.184152	0.999847	0.086368	1.264737	1.027555	-0.060106	0.843570	1.413993	-0.006272	0.840887	1.235039	0.049590	1.006284	1.311490	0.022361	0.686640	1.635346	-0.115606	0.600913	1.518814	-0.172644	0.687819	1.542681	-0.019226	0.713050	1.377618	-0.136316	0.722231	1.306352	-0.003485	0.888864	1.364726	-0.378376	0.772716	1.263464	-0.255588	1.059190	1.584139	-0.435703	NaN	NaN	NaN	0.975061	1.452022	-0.016419	1.265303	1.296085	-0.281392	1.155118	1.354500	-0.142363	1.183964	1.550702	-0.379680	0.953967	0.476064	0.186567	0.976536	0.048606	0.209891	1.008803	0.048528	0.311310	1.143990	0.110616	0.259343	1.068292	0.529551	-0.325512	0.981888	0.042092	-0.300834	0.985729	0.035326	-0.417602	1.131649	0.115795	-0.380010	1.353067	1.848596	0.510054	1.294566	1.815772	0.573597	1.337294	1.788753	0.583647	1.227305	1.737586	-0.151225	1.225687	1.687183	-0.214224	1.198168	1.702546	-0.263832
415	1.150000000	1.030165	0.936640	0.087944	1.169041	1.023084	-0.206660	1.187151	0.999494	0.086641	1.264747	1.027447	-0.061531	0.844382	1.414888	-0.005430	0.842623	1.236492	0.052910	1.007624	1.312780	0.022606	0.687738	1.635405	-0.116213	0.601582	1.518762	-0.172297	0.688812	1.543429	-0.019121	0.712945	1.376764	-0.133714	0.723319	1.307172	0.000021	0.886872	1.360142	-0.377028	0.772142	1.260526	-0.251939	1.058504	1.577630	-0.438284	NaN	NaN	NaN	0.975910	1.452868	-0.017621	1.263661	1.290485	-0.280559	1.154408	1.352443	-0.142540	1.183601	1.543917	-0.382757	0.954696	0.476636	0.188338	0.976332	0.048549	0.209964	1.008765	0.048435	0.311325	1.143896	0.110632	0.259145	1.065679	0.529464	-0.325043	0.981836	0.042024	-0.300776	0.985706	0.035404	-0.417558	1.131187	0.116053	-0.379868	1.359234	1.852788	0.502174	1.301164	1.821326	0.565966	1.343692	1.794117	0.576361	1.229667	1.733596	-0.157335	1.227257	1.682259	-0.219635	1.199681	1.697358	-0.269215
416	1.152777778	1.033006	0.936661	0.091301	1.166114	1.022752	-0.206170	1.190158	0.999125	0.086773	1.264646	1.027391	-0.062930	0.845267	1.415883	-0.004610	0.844564	1.238028	0.056414	1.008969	1.314180	0.022872	0.688879	1.635496	-0.116893	0.602256	1.518689	-0.171942	0.689632	1.544307	-0.019052	0.713047	1.375888	-0.131082	0.724665	1.307997	0.003712	0.885344	1.355114	-0.375522	0.771600	1.257610	-0.247843	1.057778	1.570590	-0.441181	NaN	NaN	NaN	0.976767	1.453789	-0.018880	1.261989	1.284806	-0.279547	1.153641	1.350289	-0.142646	1.183048	1.536704	-0.386012	0.955574	0.477279	0.190256	0.976136	0.048486	0.210046	1.008708	0.048315	0.311342	1.143816	0.110631	0.259024	1.062177	0.529292	-0.324269	0.981750	0.041932	-0.300720	0.985715	0.035471	-0.417489	1.130761	0.116314	-0.379677	1.367053	1.857084	0.492449	1.308172	1.827201	0.557644	1.350534	1.799670	0.568002	1.232083	1.729306	-0.163900	1.228893	1.677076	-0.225378	1.201005	1.691557	-0.275102
417	1.155555556	1.035953	0.936645	0.094583	1.163137	1.022329	-0.205799	1.193086	0.998771	0.086822	1.264351	1.027203	-0.064397	0.846284	1.416992	-0.003749	0.846778	1.239595	0.059908	1.010505	1.315646	0.023035	0.689991	1.635577	-0.117622	0.602893	1.518623	-0.171603	0.690465	1.545324	-0.019051	0.712984	1.375026	-0.128135	0.726147	1.308946	0.007637	0.883631	1.349686	-0.373880	0.770782	1.254611	-0.243438	1.056761	1.563086	-0.444076	NaN	NaN	NaN	0.977695	1.454692	-0.020326	1.260014	1.278689	-0.278327	1.152680	1.348113	-0.142634	1.182310	1.528996	-0.389311	0.956633	0.477594	0.192094	0.975938	0.048430	0.210191	1.008686	0.048201	0.311405	1.143731	0.110624	0.258932	1.059409	0.529062	-0.323651	0.981700	0.041828	-0.300634	0.985704	0.035552	-0.417423	1.130266	0.116578	-0.379484	1.376757	1.862350	0.481638	1.315458	1.833230	0.548566	1.357622	1.805153	0.559592	1.234509	1.724654	-0.170961	1.230399	1.671554	-0.231515	1.202413	1.685473	-0.281297
418	1.158333333	1.038825	0.936808	0.097827	1.159992	1.021932	-0.205356	1.196043	0.998465	0.086752	1.263927	1.027022	-0.065896	0.847498	1.418254	-0.002968	0.849260	1.241291	0.063505	1.012252	1.317161	0.023013	0.691154	1.635692	-0.118518	0.603536	1.518540	-0.171260	0.691417	1.546358	-0.019093	0.712991	1.374167	-0.125137	0.727818	1.310044	0.011752	0.881793	1.343883	-0.371993	0.769892	1.251427	-0.238911	1.055637	1.554969	-0.447198	NaN	NaN	NaN	0.978683	1.455678	-0.021959	1.257959	1.272472	-0.276842	1.151899	1.345981	-0.142604	1.181454	1.520873	-0.392846	0.957757	0.478185	0.194261	0.975785	0.048376	0.210334	1.008664	0.048071	0.311511	1.143664	0.110569	0.258892	1.056423	0.528735	-0.322932	0.981612	0.041715	-0.300548	0.985678	0.035644	-0.417353	1.129684	0.116838	-0.379271	1.381321	1.866228	0.472431	1.323230	1.839513	0.538505	1.365235	1.811126	0.549756	1.236828	1.719764	-0.178396	1.231797	1.665536	-0.238038	1.203694	1.678964	-0.287833
419	1.161111111	1.041818	0.936906	0.100999	1.157006	1.021502	-0.204867	1.198898	0.998225	0.086687	1.263631	1.027027	-0.067363	0.848717	1.419506	-0.002277	0.851851	1.243009	0.067203	1.013928	1.318743	0.022900	0.692284	1.635807	-0.119413	0.604167	1.518429	-0.170885	0.692298	1.547446	-0.019173	0.713256	1.373194	-0.122019	0.729589	1.311269	0.015991	0.879791	1.337752	-0.369919	0.768617	1.248550	-0.233746	1.054252	1.546333	-0.450398	NaN	NaN	NaN	0.979787	1.456733	-0.023649	1.255890	1.266046	-0.275159	1.151045	1.343957	-0.142366	1.180313	1.512205	-0.396406	0.959058	0.478774	0.196468	0.976053	0.048535	0.210267	1.008610	0.047913	0.311646	1.143605	0.110510	0.258930	1.053739	0.528501	-0.322213	0.981540	0.041632	-0.300454	0.985652	0.035699	-0.417263	1.129091	0.117052	-0.379007	1.389548	1.871019	0.460634	1.331705	1.845950	0.527507	1.373335	1.817326	0.539147	1.239076	1.714446	-0.186377	1.233135	1.659307	-0.245020	1.204663	1.671978	-0.294814
